<?xml version="1.0" standalone="no"?>
<!DOCTYPE svg PUBLIC "-//W3C//DTD SVG 20010904//EN"
 "http://www.w3.org/TR/2001/REC-SVG-20010904/DTD/svg10.dtd">
<svg version="1.0" xmlns="http://www.w3.org/2000/svg"
 width="512.000000pt" height="512.000000pt" viewBox="0 0 512.000000 512.000000"
 preserveAspectRatio="xMidYMid meet">
<metadata>
Created by potrace 1.16, written by Peter Selinger 2001-2019
</metadata>
<g transform="translate(0.000000,512.000000) scale(0.100000,-0.100000)"
fill="#000000" stroke="none">
<path d="M1135 5100 c-11 -4 -69 -58 -128 -118 -97 -97 -109 -113 -110 -146
-1 -27 6 -43 24 -60 13 -13 438 -326 944 -696 506 -370 924 -676 928 -680 5
-4 -133 -169 -305 -366 -172 -198 -423 -488 -557 -646 l-243 -286 -62 23 c-33
13 -162 62 -285 110 -162 62 -232 84 -251 80 -17 -4 -77 -56 -158 -139 -117
-118 -132 -136 -132 -167 0 -31 41 -75 593 -626 551 -552 595 -593 626 -593
31 0 49 15 167 132 83 81 135 141 139 158 4 19 -18 89 -80 251 -48 123 -97
252 -110 285 l-23 62 286 243 c158 134 449 385 646 558 l360 313 17 -23 c149
-205 171 -224 226 -197 37 17 53 52 43 90 -5 16 -43 76 -86 134 -75 103 -76
106 -58 124 11 9 114 103 229 208 116 104 266 242 335 306 103 95 126 113 132
98 11 -24 688 -2301 694 -2332 4 -20 -4 -34 -39 -68 l-44 -43 -472 648 c-261
356 -489 663 -507 681 -39 37 -70 41 -108 11 -20 -16 -26 -29 -26 -58 0 -34
51 -107 511 -737 281 -384 522 -710 535 -723 17 -18 33 -25 60 -24 33 1 49 13
153 117 109 109 116 118 114 153 -1 21 -51 201 -110 399 l-109 361 86 89 c102
105 124 146 123 229 0 133 -82 226 -215 241 -37 4 -68 1 -101 -11 -27 -9 -50
-15 -51 -13 -1 2 -7 21 -14 43 l-11 39 94 97 c106 108 127 147 127 234 1 96
-51 177 -137 216 -53 25 -147 24 -201 0 l-41 -19 -91 306 -91 306 173 176
c247 254 389 436 485 624 70 138 86 196 86 321 0 96 -3 116 -23 155 -32 60
-73 102 -130 131 -41 21 -61 24 -157 24 -125 0 -183 -16 -321 -86 -188 -96
-370 -238 -624 -485 l-176 -173 -306 91 -306 91 19 41 c24 54 25 148 0 201
-39 86 -120 137 -216 138 -86 0 -126 -21 -234 -127 l-96 -95 -42 12 c-24 6
-43 14 -43 18 0 3 7 26 15 49 19 54 19 83 -1 149 -30 103 -121 166 -234 165
-77 -1 -121 -25 -221 -121 -47 -46 -92 -83 -99 -83 -6 0 -170 47 -364 104
-401 120 -394 118 -421 106z m3754 -168 c149 -80 63 -350 -228 -712 -268 -334
-1589 -1530 -2884 -2610 l-209 -173 -60 61 -61 60 174 209 c1083 1299 2275
2617 2609 2884 304 245 540 345 659 281z m-2574 -43 c13 -25 14 -33 1 -63 -8
-18 -19 -37 -25 -40 -6 -4 -50 5 -97 19 l-87 26 38 39 c73 75 138 82 170 19z
m65 -308 c630 -188 1153 -345 1162 -349 15 -6 -3 -29 -98 -132 -64 -69 -202
-219 -306 -335 -105 -115 -199 -218 -208 -229 -18 -18 -44 0 -924 644 l-907
664 43 43 c34 35 48 43 68 39 14 -2 540 -158 1170 -345z m547 157 c30 -28 29
-74 -2 -112 l-23 -29 -86 23 c-47 12 -86 26 -86 30 0 4 24 30 54 59 63 58 103
67 143 29z m1820 -1820 c40 -37 32 -80 -28 -144 -29 -30 -55 -54 -59 -54 -4 0
-18 39 -30 86 l-23 86 29 23 c37 30 81 32 111 3z m152 -613 c63 -32 56 -97
-19 -170 l-39 -38 -26 87 c-14 47 -23 91 -19 97 5 9 58 37 72 39 2 0 16 -7 31
-15z m-3555 -246 c116 -44 215 -84 219 -88 7 -7 -213 -282 -231 -289 -4 -1
-81 72 -172 163 l-165 165 65 65 c35 36 66 65 69 65 2 0 99 -36 215 -81z m726
-728 l82 -214 -66 -66 -66 -66 -165 165 c-91 91 -164 168 -163 172 7 18 282
238 289 231 4 -4 44 -104 89 -222z"/>
<path d="M338 4272 c-333 -332 -338 -338 -338 -378 0 -51 31 -84 80 -84 32 0
61 27 377 343 374 373 371 369 322 431 -16 21 -29 26 -62 26 -41 0 -44 -3
-379 -338z"/>
<path d="M783 4067 c-200 -199 -223 -226 -223 -255 0 -44 38 -82 82 -82 29 0
56 23 255 223 207 206 223 225 223 258 0 46 -33 79 -80 79 -32 0 -54 -19 -257
-223z"/>
<path d="M1258 3903 c-82 -82 -157 -161 -165 -177 -28 -53 10 -116 69 -116 29
0 52 19 195 162 150 150 163 166 163 199 0 46 -33 79 -79 79 -29 0 -51 -18
-183 -147z"/>
<path d="M3822 1347 c-138 -138 -162 -167 -162 -192 0 -64 60 -101 117 -72 15
9 94 83 176 165 132 134 147 153 147 184 0 45 -34 78 -81 78 -31 0 -50 -15
-197 -163z"/>
<path d="M4003 887 c-200 -199 -223 -226 -223 -255 0 -44 38 -82 82 -82 29 0
56 23 255 223 207 206 223 225 223 258 0 46 -33 79 -80 79 -32 0 -54 -19 -257
-223z"/>
<path d="M4217 463 c-181 -181 -335 -340 -343 -355 -34 -66 -6 -108 72 -108
l49 0 332 333 c330 330 333 333 333 374 0 33 -5 46 -26 62 -61 48 -59 50 -417
-306z"/>
</g>
</svg>
