<?xml version="1.0" encoding="utf-8"?>
<!-- Generator: Adobe Illustrator 26.0.0, SVG Export Plug-In . SVG Version: 6.00 Build 0)  -->
<svg version="1.1" id="Layer_1" xmlns="http://www.w3.org/2000/svg" xmlns:xlink="http://www.w3.org/1999/xlink" x="0px" y="0px"
	 viewBox="0 0 612 792" style="enable-background:new 0 0 612 792;" xml:space="preserve">
<path d="M50,261.51c1.67-2.04,3.18-4.24,5.03-6.09c19.52-19.61,39.1-39.16,58.67-58.72c1.17-1.17,2.37-2.33,3.7-3.29
	c3.32-2.37,6.66-2.05,9.47,0.74c2.82,2.81,2.9,6.21,0.76,9.5c-0.89,1.37-2.12,2.53-3.29,3.7c-19.56,19.57-39.13,39.13-58.71,58.68
	c-6.41,6.41-9.38,6.48-15.64,0.45C50,264.84,50,263.17,50,261.51z"/>
<path d="M438.6,651.03c-4.56-5.15-4.63-8.47,0.15-13.26c20.37-20.44,40.78-40.85,61.23-61.22c4.74-4.72,10.19-4.68,13.05-0.06
	c2.63,4.25,0.66,7.58-2.36,10.6c-10.9,10.92-21.8,21.83-32.73,32.72c-10.44,10.42-20.91,20.81-31.36,31.22
	C443.92,651.03,441.26,651.03,438.6,651.03z"/>
<path d="M294.09,180.3c0.75,0.29,1.39,0.47,1.97,0.77c5.25,2.73,9.52,2.11,13.26-2.94c2.35-3.17,5.54-5.71,8.37-8.51
	c10.17-10.09,22.68-11.64,32.67-4.06c10.11,7.67,12.05,19.76,5.01,32.81c1.15,0.48,2.25,1.06,3.41,1.4
	c18.26,5.46,36.55,10.81,54.78,16.4c3.13,0.96,5.1,0.46,7.38-1.91c18.41-19.17,37.09-38.08,59.42-52.82
	c13.2-8.71,26.86-16.33,42.85-18.98c22.73-3.77,40.23,13.81,36.45,36.59c-2.63,15.82-10.14,29.36-18.74,42.42
	c-14.63,22.2-33.31,40.87-52.46,59.07c-2.97,2.82-3.46,5.18-2.25,9.05c5.55,17.71,10.72,35.54,16.03,53.32
	c0.37,1.25,0.84,2.48,0.84,2.48c6.19-1.02,11.99-3.03,17.63-2.67c9.15,0.58,15.69,6.11,18.98,14.72c3.29,8.6,1.83,16.72-4.21,23.71
	c-3.36,3.89-7.14,7.41-10.77,11.05c-6.62,6.65-6.63,6.64-2.96,15.25c4.41-0.9,8.72-2.44,13.07-2.54c9.69-0.23,16.95,4.48,21.1,13.15
	c4.15,8.65,3.3,17.26-2.85,24.72c-4.1,4.98-8.84,9.45-13.5,13.93c-2.08,2-2.44,3.74-1.58,6.53c6.77,22.19,13.21,44.48,20.06,66.65
	c1.78,5.77,1.12,10.1-3.57,14.2c-5.11,4.47-9.67,9.58-14.52,14.35c-5.94,5.85-10.08,5.52-15.08-1.3
	c-32.95-44.98-65.88-89.98-98.81-134.98c-4.33-5.92-4.41-9.98-0.34-13.05c3.94-2.97,8.26-1.59,12.42,4.1
	c30.31,41.37,60.59,82.74,90.89,124.12c1.46,2,2.93,3.98,4.39,5.95c8-5.28,9.92-11.04,6.95-20.76
	c-22.49-73.53-44.2-147.29-66.17-220.98c-0.47-1.57-1.06-3.09-1.78-5.2c-24.01,21.97-47.68,43.64-71.71,65.63
	c4.94,6.78,9.89,13.58,14.85,20.38c2.24,3.07,3.07,6.28,0.74,9.66c-3.02,4.37-8.9,4.24-12.61-0.54
	c-4.88-6.28-9.47-12.79-14.42-19.52c-12.06,10.5-23.89,20.89-35.81,31.17c-29.93,25.79-59.85,51.6-89.94,77.2
	c-3.15,2.68-3.5,4.74-2.06,8.36c6.26,15.7,12.11,31.56,18.4,47.25c2.15,5.36,1.42,9.36-2.86,13.33c-6.57,6.1-12.7,12.65-19.1,18.94
	c-4.75,4.67-8.65,4.73-13.31,0.07c-37.01-36.95-74-73.93-110.95-110.94c-4.51-4.52-4.47-8.35,0.01-12.93
	c6.62-6.76,13.45-13.32,20.01-20.14c3.49-3.64,7.17-4.08,11.71-2.3c16.36,6.41,32.8,12.59,49.16,19.01
	c2.71,1.06,4.33,0.92,6.36-1.44c35.5-41.29,71.1-82.48,106.68-123.7c0.75-0.87,1.46-1.79,2.46-3.03c-1.79-1.35-3.44-2.62-5.13-3.85
	c-59.6-43.62-119.2-87.24-178.8-130.86c-8.43-6.17-8.72-9.67-1.38-17.02c4.69-4.7,9.56-9.24,14.04-14.13
	c3.63-3.96,7.47-4.6,12.52-3.06c22.35,6.84,44.8,13.33,67.15,20.15c3.15,0.96,5.17,0.64,7.36-1.85c3.18-3.6,6.71-6.9,10.16-10.26
	c9.34-9.12,21.53-10.68,31.21-4.05c9.99,6.86,12.77,18.65,7.29,30.93C294.29,179.09,294.28,179.44,294.09,180.3z M206.46,508.48
	c1.17-0.93,2.34-1.82,3.46-2.77c19.69-16.56,39.43-33.06,59.04-49.71c76.3-64.81,151.99-130.29,223.52-200.41
	c16.64-16.32,32.05-33.77,43.03-54.48c4.13-7.79,7.43-16.37,9.19-24.99c2.53-12.37-6.2-20.7-18.72-18.85
	c-5.02,0.74-10.38,1.82-14.69,4.3c-12.48,7.14-25.13,14.24-36.58,22.86c-23.58,17.74-42.92,40.08-63.05,61.44
	c-64.45,68.41-125.51,139.81-186.24,211.5c-10.71,12.64-21.26,25.43-31.92,38.18C197.92,499.96,202.1,504.13,206.46,508.48z
	 M158.67,168.65c60.65,44.38,121.02,88.55,181.43,132.76c21.95-23.97,43.65-47.67,65.65-71.69c-2.1-0.73-3.77-1.38-5.48-1.89
	C326.73,205.91,253.2,184,179.67,162.1C167.67,158.53,167.67,158.54,158.67,168.65z M252.04,553.43c3.47-3.64,7.29-7.32,10.64-11.39
	c1.07-1.29,1.65-3.9,1.11-5.44c-3-8.59-6.4-17.05-9.69-25.54c-2.13-5.49-4.3-10.96-6.67-17.01c-10.4,8.68-20.26,16.9-29.87,24.92
	C229.02,530.42,240.14,541.54,252.04,553.43z M208.07,454.56c-15.15-5.81-29.49-11.34-43.86-16.76c-0.87-0.33-2.42-0.14-3.06,0.44
	c-4.36,4-8.56,8.17-12.05,11.55c11.79,11.79,22.99,23,34.31,34.32C191.19,474.79,199.34,465.02,208.07,454.56z M320.2,188.3
	c6.14,1.83,11.18,3.36,16.25,4.8c0.88,0.25,2.42,0.5,2.71,0.09c2.02-2.88,4.88-5.8,5.26-8.97c0.27-2.27-2.4-6.18-4.68-7.12
	c-2.48-1.02-6.61-0.35-8.98,1.18C326.99,180.7,324.09,184.47,320.2,188.3z M513.93,382.04c4.18-4.52,7.95-8,10.97-12.04
	c2.6-3.48,1.68-7.37-1.41-10.3c-2.93-2.77-6.49-3.22-10.01-1.01c-3.32,2.08-5.99,4.36-4.02,9.11
	C511.21,372.02,512.25,376.55,513.93,382.04z M258.74,169.99c6.46,1.92,11.46,3.57,16.56,4.81c1.27,0.31,3.27-0.32,4.23-1.25
	c3.44-3.29,3.61-8.29,0.74-11.66c-3.07-3.62-8.01-4.08-11.97-0.81C265.26,163.59,262.51,166.45,258.74,169.99z M532.1,443.23
	c3.88-4.25,7.3-7.4,9.96-11.09c2.43-3.38,1.46-7.13-1.44-9.93c-3.09-2.98-6.64-3.07-10.49-0.98c-3.96,2.15-3.32,4.99-2.12,8.39
	C529.44,433.63,530.49,437.78,532.1,443.23z"/>
<path d="M162.24,231.08c-1.71,2.72-2.67,5.08-4.33,6.76c-12.47,12.65-25.04,25.19-37.64,37.7c-4.07,4.04-8.62,4.4-11.84,1.17
	c-3.24-3.25-2.84-7.65,1.3-11.81c12.52-12.59,25.11-25.11,37.67-37.67c2.65-2.65,5.82-4.49,9.31-2.4
	C158.87,226.13,160.25,228.75,162.24,231.08z"/>
<path d="M435.84,595.74c-6.9-0.22-10.26-5.99-7.77-10.88c0.44-0.87,1.09-1.68,1.79-2.37c12.89-12.92,25.8-25.83,38.72-38.73
	c0.47-0.47,0.98-0.9,1.52-1.28c3.49-2.4,6.98-2.3,9.9,0.74c2.74,2.85,2.85,6.24,0.53,9.52c-0.76,1.07-1.72,2.02-2.65,2.96
	c-11.96,11.98-23.88,23.99-35.96,35.86C439.9,593.53,437.21,594.82,435.84,595.74z"/>
<path d="M202.37,255.2c-1.78,2.79-2.78,5.12-4.43,6.81c-8.45,8.66-17.02,17.21-25.64,25.7c-4.11,4.04-8.65,4.28-11.82,0.94
	c-3-3.17-2.7-7.56,1.13-11.45c8.6-8.75,17.32-17.37,26-26.05c2.68-2.68,5.99-4.21,9.38-2.19
	C199.14,250.24,200.46,252.91,202.37,255.2z"/>
<path d="M459.02,507.74c-1.7,2.82-2.54,5.07-4.08,6.64c-8.57,8.78-17.25,17.44-26,26.04c-4.03,3.96-8.71,4.15-11.82,0.81
	c-2.99-3.21-2.62-7.5,1.28-11.46c8.61-8.73,17.31-17.39,26.02-26.02c2.48-2.46,5.56-4.37,8.88-2.29
	C455.56,502.88,457.05,505.51,459.02,507.74z"/>
</svg>
